<svg width="256" height="80" viewBox="0 0 256 80" fill="none" xmlns="http://www.w3.org/2000/svg">
<rect x="8" width="80" height="80" rx="22" fill="#03BC76"/>
<path d="M66.6994 16.239C68.8286 17.6747 69.99 19.0625 70.1836 20.4025C70.3772 21.6946 69.8448 23.25 68.5867 25.0686L54.1417 46.4606V59.023C54.1417 60.0758 54.0449 61.1048 53.8513 62.1098C53.6578 63.1147 53.1013 63.9522 52.1818 64.6222C51.2624 65.2444 49.6896 65.5554 47.4636 65.5554C45.2376 65.5554 43.6648 65.2444 42.7454 64.6222C41.8259 63.9522 41.2694 63.1147 41.0759 62.1098C40.8823 61.0569 40.7855 59.9801 40.7855 58.8794V46.4606L26.3405 25.0686C24.9856 23.2021 24.4533 21.5989 24.7436 20.2589C25.034 18.919 26.2196 17.579 28.3004 16.239C29.8006 15.234 31.0829 14.6597 32.1476 14.5161C33.2122 14.3247 34.18 14.54 35.0511 15.1622C35.9221 15.7365 36.769 16.6936 37.5917 18.0336L47.2458 33.3956L57.3355 18.0336C58.255 16.6458 59.126 15.6647 59.9487 15.0904C60.8198 14.5161 61.7876 14.3247 62.8522 14.5161C63.9168 14.7075 65.1992 15.2818 66.6994 16.239Z" fill="white"/>
<mask id="path-3-outside-1_166_2" maskUnits="userSpaceOnUse" x="101.469" y="17.0884" width="133" height="42" fill="black">
<rect fill="white" x="101.469" y="17.0884" width="133" height="42"/>
<path d="M134.149 19.0302C135.232 19.7769 135.829 20.4862 135.941 21.1582C136.053 21.8302 135.792 22.6142 135.157 23.5102L122.669 42.3822V54.4222C122.669 55.0569 122.595 55.6355 122.445 56.1582C122.333 56.6435 122.035 57.0355 121.549 57.3342C121.064 57.6702 120.299 57.8382 119.253 57.8382C118.171 57.8382 117.387 57.6702 116.901 57.3342C116.453 57.0355 116.155 56.6249 116.005 56.1022C115.893 55.5795 115.837 54.9822 115.837 54.3102V42.3822L103.293 23.5662C102.621 22.6329 102.36 21.8302 102.509 21.1582C102.696 20.4862 103.312 19.7955 104.357 19.0862C105.104 18.5635 105.739 18.2462 106.261 18.1342C106.821 18.0222 107.325 18.1155 107.773 18.4142C108.221 18.7129 108.651 19.1982 109.061 19.8702L119.141 35.8302L129.389 19.8702C129.837 19.1982 130.267 18.7315 130.677 18.4702C131.125 18.1715 131.629 18.0782 132.189 18.1902C132.749 18.2649 133.403 18.5449 134.149 19.0302Z"/>
<path d="M155.643 57.6702C154.56 57.6702 153.758 57.4649 153.235 57.0542C152.712 56.6435 152.451 56.0835 152.451 55.3742L152.843 53.5262C152.544 54.0115 152.04 54.5902 151.331 55.2622C150.622 55.8969 149.688 56.4755 148.531 56.9982C147.374 57.4835 145.974 57.7262 144.331 57.7262C142.576 57.7262 140.915 57.3715 139.347 56.6622C137.816 55.9155 136.454 54.9075 135.259 53.6382C134.102 52.3315 133.168 50.8569 132.459 49.2142C131.787 47.5342 131.451 45.7422 131.451 43.8382C131.451 42.0089 131.787 40.2915 132.459 38.6862C133.168 37.0435 134.12 35.5875 135.315 34.3182C136.51 33.0489 137.872 32.0595 139.403 31.3502C140.971 30.6035 142.614 30.2302 144.331 30.2302C145.862 30.2302 147.15 30.4355 148.195 30.8462C149.278 31.2569 150.192 31.7795 150.939 32.4142C151.686 33.0115 152.302 33.6462 152.787 34.3182L152.451 32.6942C152.451 31.8729 152.712 31.2569 153.235 30.8462C153.758 30.3982 154.579 30.1742 155.699 30.1742C156.744 30.1742 157.491 30.3422 157.939 30.6782C158.387 30.9769 158.667 31.4062 158.779 31.9662C158.891 32.4889 158.947 33.0862 158.947 33.7582V54.2542C158.947 54.8889 158.891 55.4675 158.779 55.9902C158.667 56.5129 158.368 56.9235 157.883 57.2222C157.435 57.5209 156.688 57.6702 155.643 57.6702ZM145.339 51.1742C146.608 51.1742 147.747 50.8569 148.755 50.2222C149.763 49.5875 150.566 48.7289 151.163 47.6462C151.798 46.5262 152.115 45.2942 152.115 43.9502C152.115 42.4942 151.798 41.2249 151.163 40.1422C150.528 39.0595 149.688 38.2195 148.643 37.6222C147.635 36.9875 146.496 36.6702 145.227 36.6702C143.846 36.6702 142.614 37.0062 141.531 37.6782C140.448 38.3129 139.59 39.1902 138.955 40.3102C138.358 41.3929 138.059 42.6249 138.059 44.0062C138.059 45.3502 138.376 46.5635 139.011 47.6462C139.646 48.7289 140.504 49.5875 141.587 50.2222C142.707 50.8569 143.958 51.1742 145.339 51.1742Z"/>
<path d="M178.174 57.7822C176.344 57.7822 174.776 57.5955 173.47 57.2222C172.163 56.8489 171.099 56.2702 170.278 55.4862C169.456 54.7022 168.84 53.6942 168.43 52.4622C168.056 51.1929 167.87 49.6995 167.87 47.9822V24.2382C167.87 23.5662 167.926 22.9875 168.038 22.5022C168.187 22.0169 168.486 21.6435 168.934 21.3822C169.419 21.0835 170.166 20.9342 171.174 20.9342C172.219 20.9342 172.966 21.0835 173.414 21.3822C173.899 21.6809 174.198 22.0915 174.31 22.6142C174.459 23.0995 174.534 23.6409 174.534 24.2382V47.7582C174.534 48.5422 174.59 49.1769 174.702 49.6622C174.851 50.1475 175.056 50.5209 175.318 50.7822C175.616 51.0062 175.99 51.1742 176.438 51.2862C176.923 51.3609 177.502 51.3982 178.174 51.3982C178.883 51.3982 179.48 51.4542 179.966 51.5662C180.488 51.6782 180.88 51.9582 181.142 52.4062C181.403 52.8169 181.534 53.5075 181.534 54.4782C181.534 55.5235 181.366 56.2889 181.03 56.7742C180.731 57.2222 180.32 57.5022 179.798 57.6142C179.312 57.7262 178.771 57.7822 178.174 57.7822ZM165.574 30.7342L171.342 30.7902L179.07 30.5662C179.704 30.5662 180.264 30.6409 180.75 30.7902C181.272 30.9022 181.683 31.2009 181.982 31.6862C182.28 32.1342 182.43 32.8809 182.43 33.9262C182.43 34.8969 182.28 35.6249 181.982 36.1102C181.683 36.5955 181.291 36.9129 180.806 37.0622C180.32 37.1742 179.76 37.2302 179.126 37.2302L171.622 37.1182L165.406 37.1742C164.472 37.1369 163.819 36.8755 163.446 36.3902C163.11 35.8675 162.942 35.0275 162.942 33.8702C162.942 32.7875 163.147 32.0035 163.558 31.5182C164.006 30.9955 164.678 30.7342 165.574 30.7342Z"/>
<path d="M189.909 57.7822C188.901 57.7822 188.154 57.6142 187.669 57.2782C187.221 56.9795 186.941 56.5689 186.829 56.0462C186.717 55.5235 186.661 54.9449 186.661 54.3102V33.5342C186.661 32.8622 186.717 32.2835 186.829 31.7982C186.941 31.2755 187.221 30.8835 187.669 30.6222C188.154 30.3235 188.919 30.1742 189.965 30.1742C190.973 30.1742 191.701 30.3049 192.149 30.5662C192.634 30.8275 192.933 31.1635 193.045 31.5742C193.194 31.9475 193.269 32.3209 193.269 32.6942L192.821 33.7022C193.007 33.4035 193.269 33.0489 193.605 32.6382C193.941 32.1902 194.389 31.7609 194.949 31.3502C195.509 30.9022 196.181 30.5475 196.965 30.2862C197.749 29.9875 198.682 29.8382 199.765 29.8382C200.213 29.8382 200.679 29.8942 201.165 30.0062C201.687 30.0809 202.191 30.2115 202.677 30.3982C203.199 30.5475 203.666 30.7529 204.077 31.0142C204.487 31.2755 204.805 31.5929 205.029 31.9662C205.253 32.3022 205.365 32.6942 205.365 33.1422C205.365 34.3369 205.066 35.3449 204.469 36.1662C203.871 36.9875 203.162 37.3982 202.341 37.3982C201.781 37.3982 201.37 37.3422 201.109 37.2302C200.847 37.1182 200.623 36.9875 200.437 36.8382C200.287 36.6889 200.045 36.5582 199.709 36.4462C199.41 36.3342 198.925 36.2782 198.253 36.2782C197.693 36.2782 197.114 36.3715 196.517 36.5582C195.957 36.7449 195.434 37.0249 194.949 37.3982C194.463 37.7715 194.071 38.2569 193.773 38.8542C193.474 39.4142 193.325 40.0675 193.325 40.8142V54.4222C193.325 55.0569 193.269 55.6355 193.157 56.1582C193.045 56.6435 192.746 57.0355 192.261 57.3342C191.775 57.6329 190.991 57.7822 189.909 57.7822Z"/>
<path d="M230.565 57.6702C229.482 57.6702 228.679 57.4649 228.157 57.0542C227.634 56.6435 227.373 56.0835 227.373 55.3742L227.765 53.5262C227.466 54.0115 226.962 54.5902 226.253 55.2622C225.543 55.8969 224.61 56.4755 223.453 56.9982C222.295 57.4835 220.895 57.7262 219.253 57.7262C217.498 57.7262 215.837 57.3715 214.269 56.6622C212.738 55.9155 211.375 54.9075 210.181 53.6382C209.023 52.3315 208.09 50.8569 207.381 49.2142C206.709 47.5342 206.373 45.7422 206.373 43.8382C206.373 42.0089 206.709 40.2915 207.381 38.6862C208.09 37.0435 209.042 35.5875 210.237 34.3182C211.431 33.0489 212.794 32.0595 214.325 31.3502C215.893 30.6035 217.535 30.2302 219.253 30.2302C220.783 30.2302 222.071 30.4355 223.117 30.8462C224.199 31.2569 225.114 31.7795 225.861 32.4142C226.607 33.0115 227.223 33.6462 227.709 34.3182L227.373 32.6942C227.373 31.8729 227.634 31.2569 228.157 30.8462C228.679 30.3982 229.501 30.1742 230.621 30.1742C231.666 30.1742 232.413 30.3422 232.861 30.6782C233.309 30.9769 233.589 31.4062 233.701 31.9662C233.813 32.4889 233.869 33.0862 233.869 33.7582V54.2542C233.869 54.8889 233.813 55.4675 233.701 55.9902C233.589 56.5129 233.29 56.9235 232.805 57.2222C232.357 57.5209 231.61 57.6702 230.565 57.6702ZM220.261 51.1742C221.53 51.1742 222.669 50.8569 223.677 50.2222C224.685 49.5875 225.487 48.7289 226.085 47.6462C226.719 46.5262 227.037 45.2942 227.037 43.9502C227.037 42.4942 226.719 41.2249 226.085 40.1422C225.45 39.0595 224.61 38.2195 223.565 37.6222C222.557 36.9875 221.418 36.6702 220.149 36.6702C218.767 36.6702 217.535 37.0062 216.453 37.6782C215.37 38.3129 214.511 39.1902 213.877 40.3102C213.279 41.3929 212.981 42.6249 212.981 44.0062C212.981 45.3502 213.298 46.5635 213.933 47.6462C214.567 48.7289 215.426 49.5875 216.509 50.2222C217.629 50.8569 218.879 51.1742 220.261 51.1742Z"/>
</mask>
<path d="M134.149 19.0302C135.232 19.7769 135.829 20.4862 135.941 21.1582C136.053 21.8302 135.792 22.6142 135.157 23.5102L122.669 42.3822V54.4222C122.669 55.0569 122.595 55.6355 122.445 56.1582C122.333 56.6435 122.035 57.0355 121.549 57.3342C121.064 57.6702 120.299 57.8382 119.253 57.8382C118.171 57.8382 117.387 57.6702 116.901 57.3342C116.453 57.0355 116.155 56.6249 116.005 56.1022C115.893 55.5795 115.837 54.9822 115.837 54.3102V42.3822L103.293 23.5662C102.621 22.6329 102.36 21.8302 102.509 21.1582C102.696 20.4862 103.312 19.7955 104.357 19.0862C105.104 18.5635 105.739 18.2462 106.261 18.1342C106.821 18.0222 107.325 18.1155 107.773 18.4142C108.221 18.7129 108.651 19.1982 109.061 19.8702L119.141 35.8302L129.389 19.8702C129.837 19.1982 130.267 18.7315 130.677 18.4702C131.125 18.1715 131.629 18.0782 132.189 18.1902C132.749 18.2649 133.403 18.5449 134.149 19.0302Z" fill="black"/>
<path d="M155.643 57.6702C154.56 57.6702 153.758 57.4649 153.235 57.0542C152.712 56.6435 152.451 56.0835 152.451 55.3742L152.843 53.5262C152.544 54.0115 152.04 54.5902 151.331 55.2622C150.622 55.8969 149.688 56.4755 148.531 56.9982C147.374 57.4835 145.974 57.7262 144.331 57.7262C142.576 57.7262 140.915 57.3715 139.347 56.6622C137.816 55.9155 136.454 54.9075 135.259 53.6382C134.102 52.3315 133.168 50.8569 132.459 49.2142C131.787 47.5342 131.451 45.7422 131.451 43.8382C131.451 42.0089 131.787 40.2915 132.459 38.6862C133.168 37.0435 134.12 35.5875 135.315 34.3182C136.51 33.0489 137.872 32.0595 139.403 31.3502C140.971 30.6035 142.614 30.2302 144.331 30.2302C145.862 30.2302 147.15 30.4355 148.195 30.8462C149.278 31.2569 150.192 31.7795 150.939 32.4142C151.686 33.0115 152.302 33.6462 152.787 34.3182L152.451 32.6942C152.451 31.8729 152.712 31.2569 153.235 30.8462C153.758 30.3982 154.579 30.1742 155.699 30.1742C156.744 30.1742 157.491 30.3422 157.939 30.6782C158.387 30.9769 158.667 31.4062 158.779 31.9662C158.891 32.4889 158.947 33.0862 158.947 33.7582V54.2542C158.947 54.8889 158.891 55.4675 158.779 55.9902C158.667 56.5129 158.368 56.9235 157.883 57.2222C157.435 57.5209 156.688 57.6702 155.643 57.6702ZM145.339 51.1742C146.608 51.1742 147.747 50.8569 148.755 50.2222C149.763 49.5875 150.566 48.7289 151.163 47.6462C151.798 46.5262 152.115 45.2942 152.115 43.9502C152.115 42.4942 151.798 41.2249 151.163 40.1422C150.528 39.0595 149.688 38.2195 148.643 37.6222C147.635 36.9875 146.496 36.6702 145.227 36.6702C143.846 36.6702 142.614 37.0062 141.531 37.6782C140.448 38.3129 139.59 39.1902 138.955 40.3102C138.358 41.3929 138.059 42.6249 138.059 44.0062C138.059 45.3502 138.376 46.5635 139.011 47.6462C139.646 48.7289 140.504 49.5875 141.587 50.2222C142.707 50.8569 143.958 51.1742 145.339 51.1742Z" fill="black"/>
<path d="M178.174 57.7822C176.344 57.7822 174.776 57.5955 173.47 57.2222C172.163 56.8489 171.099 56.2702 170.278 55.4862C169.456 54.7022 168.84 53.6942 168.43 52.4622C168.056 51.1929 167.87 49.6995 167.87 47.9822V24.2382C167.87 23.5662 167.926 22.9875 168.038 22.5022C168.187 22.0169 168.486 21.6435 168.934 21.3822C169.419 21.0835 170.166 20.9342 171.174 20.9342C172.219 20.9342 172.966 21.0835 173.414 21.3822C173.899 21.6809 174.198 22.0915 174.31 22.6142C174.459 23.0995 174.534 23.6409 174.534 24.2382V47.7582C174.534 48.5422 174.59 49.1769 174.702 49.6622C174.851 50.1475 175.056 50.5209 175.318 50.7822C175.616 51.0062 175.99 51.1742 176.438 51.2862C176.923 51.3609 177.502 51.3982 178.174 51.3982C178.883 51.3982 179.48 51.4542 179.966 51.5662C180.488 51.6782 180.88 51.9582 181.142 52.4062C181.403 52.8169 181.534 53.5075 181.534 54.4782C181.534 55.5235 181.366 56.2889 181.03 56.7742C180.731 57.2222 180.32 57.5022 179.798 57.6142C179.312 57.7262 178.771 57.7822 178.174 57.7822ZM165.574 30.7342L171.342 30.7902L179.07 30.5662C179.704 30.5662 180.264 30.6409 180.75 30.7902C181.272 30.9022 181.683 31.2009 181.982 31.6862C182.28 32.1342 182.43 32.8809 182.43 33.9262C182.43 34.8969 182.28 35.6249 181.982 36.1102C181.683 36.5955 181.291 36.9129 180.806 37.0622C180.32 37.1742 179.76 37.2302 179.126 37.2302L171.622 37.1182L165.406 37.1742C164.472 37.1369 163.819 36.8755 163.446 36.3902C163.11 35.8675 162.942 35.0275 162.942 33.8702C162.942 32.7875 163.147 32.0035 163.558 31.5182C164.006 30.9955 164.678 30.7342 165.574 30.7342Z" fill="black"/>
<path d="M189.909 57.7822C188.901 57.7822 188.154 57.6142 187.669 57.2782C187.221 56.9795 186.941 56.5689 186.829 56.0462C186.717 55.5235 186.661 54.9449 186.661 54.3102V33.5342C186.661 32.8622 186.717 32.2835 186.829 31.7982C186.941 31.2755 187.221 30.8835 187.669 30.6222C188.154 30.3235 188.919 30.1742 189.965 30.1742C190.973 30.1742 191.701 30.3049 192.149 30.5662C192.634 30.8275 192.933 31.1635 193.045 31.5742C193.194 31.9475 193.269 32.3209 193.269 32.6942L192.821 33.7022C193.007 33.4035 193.269 33.0489 193.605 32.6382C193.941 32.1902 194.389 31.7609 194.949 31.3502C195.509 30.9022 196.181 30.5475 196.965 30.2862C197.749 29.9875 198.682 29.8382 199.765 29.8382C200.213 29.8382 200.679 29.8942 201.165 30.0062C201.687 30.0809 202.191 30.2115 202.677 30.3982C203.199 30.5475 203.666 30.7529 204.077 31.0142C204.487 31.2755 204.805 31.5929 205.029 31.9662C205.253 32.3022 205.365 32.6942 205.365 33.1422C205.365 34.3369 205.066 35.3449 204.469 36.1662C203.871 36.9875 203.162 37.3982 202.341 37.3982C201.781 37.3982 201.37 37.3422 201.109 37.2302C200.847 37.1182 200.623 36.9875 200.437 36.8382C200.287 36.6889 200.045 36.5582 199.709 36.4462C199.41 36.3342 198.925 36.2782 198.253 36.2782C197.693 36.2782 197.114 36.3715 196.517 36.5582C195.957 36.7449 195.434 37.0249 194.949 37.3982C194.463 37.7715 194.071 38.2569 193.773 38.8542C193.474 39.4142 193.325 40.0675 193.325 40.8142V54.4222C193.325 55.0569 193.269 55.6355 193.157 56.1582C193.045 56.6435 192.746 57.0355 192.261 57.3342C191.775 57.6329 190.991 57.7822 189.909 57.7822Z" fill="black"/>
<path d="M230.565 57.6702C229.482 57.6702 228.679 57.4649 228.157 57.0542C227.634 56.6435 227.373 56.0835 227.373 55.3742L227.765 53.5262C227.466 54.0115 226.962 54.5902 226.253 55.2622C225.543 55.8969 224.61 56.4755 223.453 56.9982C222.295 57.4835 220.895 57.7262 219.253 57.7262C217.498 57.7262 215.837 57.3715 214.269 56.6622C212.738 55.9155 211.375 54.9075 210.181 53.6382C209.023 52.3315 208.09 50.8569 207.381 49.2142C206.709 47.5342 206.373 45.7422 206.373 43.8382C206.373 42.0089 206.709 40.2915 207.381 38.6862C208.09 37.0435 209.042 35.5875 210.237 34.3182C211.431 33.0489 212.794 32.0595 214.325 31.3502C215.893 30.6035 217.535 30.2302 219.253 30.2302C220.783 30.2302 222.071 30.4355 223.117 30.8462C224.199 31.2569 225.114 31.7795 225.861 32.4142C226.607 33.0115 227.223 33.6462 227.709 34.3182L227.373 32.6942C227.373 31.8729 227.634 31.2569 228.157 30.8462C228.679 30.3982 229.501 30.1742 230.621 30.1742C231.666 30.1742 232.413 30.3422 232.861 30.6782C233.309 30.9769 233.589 31.4062 233.701 31.9662C233.813 32.4889 233.869 33.0862 233.869 33.7582V54.2542C233.869 54.8889 233.813 55.4675 233.701 55.9902C233.589 56.5129 233.29 56.9235 232.805 57.2222C232.357 57.5209 231.61 57.6702 230.565 57.6702ZM220.261 51.1742C221.53 51.1742 222.669 50.8569 223.677 50.2222C224.685 49.5875 225.487 48.7289 226.085 47.6462C226.719 46.5262 227.037 45.2942 227.037 43.9502C227.037 42.4942 226.719 41.2249 226.085 40.1422C225.45 39.0595 224.61 38.2195 223.565 37.6222C222.557 36.9875 221.418 36.6702 220.149 36.6702C218.767 36.6702 217.535 37.0062 216.453 37.6782C215.37 38.3129 214.511 39.1902 213.877 40.3102C213.279 41.3929 212.981 42.6249 212.981 44.0062C212.981 45.3502 213.298 46.5635 213.933 47.6462C214.567 48.7289 215.426 49.5875 216.509 50.2222C217.629 50.8569 218.879 51.1742 220.261 51.1742Z" fill="black"/>
<path d="M134.149 19.0302C135.232 19.7769 135.829 20.4862 135.941 21.1582C136.053 21.8302 135.792 22.6142 135.157 23.5102L122.669 42.3822V54.4222C122.669 55.0569 122.595 55.6355 122.445 56.1582C122.333 56.6435 122.035 57.0355 121.549 57.3342C121.064 57.6702 120.299 57.8382 119.253 57.8382C118.171 57.8382 117.387 57.6702 116.901 57.3342C116.453 57.0355 116.155 56.6249 116.005 56.1022C115.893 55.5795 115.837 54.9822 115.837 54.3102V42.3822L103.293 23.5662C102.621 22.6329 102.36 21.8302 102.509 21.1582C102.696 20.4862 103.312 19.7955 104.357 19.0862C105.104 18.5635 105.739 18.2462 106.261 18.1342C106.821 18.0222 107.325 18.1155 107.773 18.4142C108.221 18.7129 108.651 19.1982 109.061 19.8702L119.141 35.8302L129.389 19.8702C129.837 19.1982 130.267 18.7315 130.677 18.4702C131.125 18.1715 131.629 18.0782 132.189 18.1902C132.749 18.2649 133.403 18.5449 134.149 19.0302Z" stroke="black" mask="url(#path-3-outside-1_166_2)"/>
<path d="M155.643 57.6702C154.56 57.6702 153.758 57.4649 153.235 57.0542C152.712 56.6435 152.451 56.0835 152.451 55.3742L152.843 53.5262C152.544 54.0115 152.04 54.5902 151.331 55.2622C150.622 55.8969 149.688 56.4755 148.531 56.9982C147.374 57.4835 145.974 57.7262 144.331 57.7262C142.576 57.7262 140.915 57.3715 139.347 56.6622C137.816 55.9155 136.454 54.9075 135.259 53.6382C134.102 52.3315 133.168 50.8569 132.459 49.2142C131.787 47.5342 131.451 45.7422 131.451 43.8382C131.451 42.0089 131.787 40.2915 132.459 38.6862C133.168 37.0435 134.12 35.5875 135.315 34.3182C136.51 33.0489 137.872 32.0595 139.403 31.3502C140.971 30.6035 142.614 30.2302 144.331 30.2302C145.862 30.2302 147.15 30.4355 148.195 30.8462C149.278 31.2569 150.192 31.7795 150.939 32.4142C151.686 33.0115 152.302 33.6462 152.787 34.3182L152.451 32.6942C152.451 31.8729 152.712 31.2569 153.235 30.8462C153.758 30.3982 154.579 30.1742 155.699 30.1742C156.744 30.1742 157.491 30.3422 157.939 30.6782C158.387 30.9769 158.667 31.4062 158.779 31.9662C158.891 32.4889 158.947 33.0862 158.947 33.7582V54.2542C158.947 54.8889 158.891 55.4675 158.779 55.9902C158.667 56.5129 158.368 56.9235 157.883 57.2222C157.435 57.5209 156.688 57.6702 155.643 57.6702ZM145.339 51.1742C146.608 51.1742 147.747 50.8569 148.755 50.2222C149.763 49.5875 150.566 48.7289 151.163 47.6462C151.798 46.5262 152.115 45.2942 152.115 43.9502C152.115 42.4942 151.798 41.2249 151.163 40.1422C150.528 39.0595 149.688 38.2195 148.643 37.6222C147.635 36.9875 146.496 36.6702 145.227 36.6702C143.846 36.6702 142.614 37.0062 141.531 37.6782C140.448 38.3129 139.59 39.1902 138.955 40.3102C138.358 41.3929 138.059 42.6249 138.059 44.0062C138.059 45.3502 138.376 46.5635 139.011 47.6462C139.646 48.7289 140.504 49.5875 141.587 50.2222C142.707 50.8569 143.958 51.1742 145.339 51.1742Z" stroke="black" mask="url(#path-3-outside-1_166_2)"/>
<path d="M178.174 57.7822C176.344 57.7822 174.776 57.5955 173.47 57.2222C172.163 56.8489 171.099 56.2702 170.278 55.4862C169.456 54.7022 168.84 53.6942 168.43 52.4622C168.056 51.1929 167.87 49.6995 167.87 47.9822V24.2382C167.87 23.5662 167.926 22.9875 168.038 22.5022C168.187 22.0169 168.486 21.6435 168.934 21.3822C169.419 21.0835 170.166 20.9342 171.174 20.9342C172.219 20.9342 172.966 21.0835 173.414 21.3822C173.899 21.6809 174.198 22.0915 174.31 22.6142C174.459 23.0995 174.534 23.6409 174.534 24.2382V47.7582C174.534 48.5422 174.59 49.1769 174.702 49.6622C174.851 50.1475 175.056 50.5209 175.318 50.7822C175.616 51.0062 175.99 51.1742 176.438 51.2862C176.923 51.3609 177.502 51.3982 178.174 51.3982C178.883 51.3982 179.48 51.4542 179.966 51.5662C180.488 51.6782 180.88 51.9582 181.142 52.4062C181.403 52.8169 181.534 53.5075 181.534 54.4782C181.534 55.5235 181.366 56.2889 181.03 56.7742C180.731 57.2222 180.32 57.5022 179.798 57.6142C179.312 57.7262 178.771 57.7822 178.174 57.7822ZM165.574 30.7342L171.342 30.7902L179.07 30.5662C179.704 30.5662 180.264 30.6409 180.75 30.7902C181.272 30.9022 181.683 31.2009 181.982 31.6862C182.28 32.1342 182.43 32.8809 182.43 33.9262C182.43 34.8969 182.28 35.6249 181.982 36.1102C181.683 36.5955 181.291 36.9129 180.806 37.0622C180.32 37.1742 179.76 37.2302 179.126 37.2302L171.622 37.1182L165.406 37.1742C164.472 37.1369 163.819 36.8755 163.446 36.3902C163.11 35.8675 162.942 35.0275 162.942 33.8702C162.942 32.7875 163.147 32.0035 163.558 31.5182C164.006 30.9955 164.678 30.7342 165.574 30.7342Z" stroke="black" mask="url(#path-3-outside-1_166_2)"/>
<path d="M189.909 57.7822C188.901 57.7822 188.154 57.6142 187.669 57.2782C187.221 56.9795 186.941 56.5689 186.829 56.0462C186.717 55.5235 186.661 54.9449 186.661 54.3102V33.5342C186.661 32.8622 186.717 32.2835 186.829 31.7982C186.941 31.2755 187.221 30.8835 187.669 30.6222C188.154 30.3235 188.919 30.1742 189.965 30.1742C190.973 30.1742 191.701 30.3049 192.149 30.5662C192.634 30.8275 192.933 31.1635 193.045 31.5742C193.194 31.9475 193.269 32.3209 193.269 32.6942L192.821 33.7022C193.007 33.4035 193.269 33.0489 193.605 32.6382C193.941 32.1902 194.389 31.7609 194.949 31.3502C195.509 30.9022 196.181 30.5475 196.965 30.2862C197.749 29.9875 198.682 29.8382 199.765 29.8382C200.213 29.8382 200.679 29.8942 201.165 30.0062C201.687 30.0809 202.191 30.2115 202.677 30.3982C203.199 30.5475 203.666 30.7529 204.077 31.0142C204.487 31.2755 204.805 31.5929 205.029 31.9662C205.253 32.3022 205.365 32.6942 205.365 33.1422C205.365 34.3369 205.066 35.3449 204.469 36.1662C203.871 36.9875 203.162 37.3982 202.341 37.3982C201.781 37.3982 201.37 37.3422 201.109 37.2302C200.847 37.1182 200.623 36.9875 200.437 36.8382C200.287 36.6889 200.045 36.5582 199.709 36.4462C199.41 36.3342 198.925 36.2782 198.253 36.2782C197.693 36.2782 197.114 36.3715 196.517 36.5582C195.957 36.7449 195.434 37.0249 194.949 37.3982C194.463 37.7715 194.071 38.2569 193.773 38.8542C193.474 39.4142 193.325 40.0675 193.325 40.8142V54.4222C193.325 55.0569 193.269 55.6355 193.157 56.1582C193.045 56.6435 192.746 57.0355 192.261 57.3342C191.775 57.6329 190.991 57.7822 189.909 57.7822Z" stroke="black" mask="url(#path-3-outside-1_166_2)"/>
<path d="M230.565 57.6702C229.482 57.6702 228.679 57.4649 228.157 57.0542C227.634 56.6435 227.373 56.0835 227.373 55.3742L227.765 53.5262C227.466 54.0115 226.962 54.5902 226.253 55.2622C225.543 55.8969 224.61 56.4755 223.453 56.9982C222.295 57.4835 220.895 57.7262 219.253 57.7262C217.498 57.7262 215.837 57.3715 214.269 56.6622C212.738 55.9155 211.375 54.9075 210.181 53.6382C209.023 52.3315 208.09 50.8569 207.381 49.2142C206.709 47.5342 206.373 45.7422 206.373 43.8382C206.373 42.0089 206.709 40.2915 207.381 38.6862C208.09 37.0435 209.042 35.5875 210.237 34.3182C211.431 33.0489 212.794 32.0595 214.325 31.3502C215.893 30.6035 217.535 30.2302 219.253 30.2302C220.783 30.2302 222.071 30.4355 223.117 30.8462C224.199 31.2569 225.114 31.7795 225.861 32.4142C226.607 33.0115 227.223 33.6462 227.709 34.3182L227.373 32.6942C227.373 31.8729 227.634 31.2569 228.157 30.8462C228.679 30.3982 229.501 30.1742 230.621 30.1742C231.666 30.1742 232.413 30.3422 232.861 30.6782C233.309 30.9769 233.589 31.4062 233.701 31.9662C233.813 32.4889 233.869 33.0862 233.869 33.7582V54.2542C233.869 54.8889 233.813 55.4675 233.701 55.9902C233.589 56.5129 233.29 56.9235 232.805 57.2222C232.357 57.5209 231.61 57.6702 230.565 57.6702ZM220.261 51.1742C221.53 51.1742 222.669 50.8569 223.677 50.2222C224.685 49.5875 225.487 48.7289 226.085 47.6462C226.719 46.5262 227.037 45.2942 227.037 43.9502C227.037 42.4942 226.719 41.2249 226.085 40.1422C225.45 39.0595 224.61 38.2195 223.565 37.6222C222.557 36.9875 221.418 36.6702 220.149 36.6702C218.767 36.6702 217.535 37.0062 216.453 37.6782C215.37 38.3129 214.511 39.1902 213.877 40.3102C213.279 41.3929 212.981 42.6249 212.981 44.0062C212.981 45.3502 213.298 46.5635 213.933 47.6462C214.567 48.7289 215.426 49.5875 216.509 50.2222C217.629 50.8569 218.879 51.1742 220.261 51.1742Z" stroke="black" mask="url(#path-3-outside-1_166_2)"/>
<circle cx="243" cy="53" r="5" fill="#03BC76"/>
</svg>
